<?xml version="1.0" standalone="no"?>
<!DOCTYPE svg PUBLIC "-//W3C//DTD SVG 20010904//EN"
 "http://www.w3.org/TR/2001/REC-SVG-20010904/DTD/svg10.dtd">
<svg version="1.0" xmlns="http://www.w3.org/2000/svg"
 width="138.000000pt" height="137.000000pt" viewBox="0 0 138.000000 137.000000"
 preserveAspectRatio="xMidYMid meet">

<g transform="translate(0.000000,137.000000) scale(0.100000,-0.100000)"
fill="#000000" stroke="none">
<path d="M560 1030 c0 -88 3 -160 6 -160 15 0 121 71 145 97 55 61 65 84 76
171 l6 52 -117 0 -116 0 0 -160z"/>
<path d="M745 987 c-6 -7 -11 -25 -11 -42 l-1 -30 14 34 c15 36 14 56 -2 38z"/>
<path d="M689 873 c-12 -16 -12 -17 2 -6 9 7 20 9 24 5 5 -4 5 -1 1 6 -9 16
-11 15 -27 -5z"/>
<path d="M695 849 c-4 -6 -5 -12 -2 -15 2 -3 7 2 10 11 7 17 1 20 -8 4z"/>
<path d="M740 564 c-25 -14 -64 -44 -87 -66 -22 -22 -46 -37 -52 -34 -7 5 -9
1 -5 -9 4 -8 1 -22 -6 -30 -7 -8 -9 -15 -5 -15 4 0 3 -6 -3 -12 -5 -7 -13 -39
-16 -70 l-7 -58 115 0 116 0 0 160 c0 88 -1 160 -2 160 -2 0 -23 -12 -48 -26z"/>
<path d="M616 535 c-3 -9 -5 -29 -5 -43 1 -20 3 -17 9 13 8 43 7 57 -4 30z"/>
<path d="M630 510 c0 -5 5 -10 11 -10 5 0 7 5 4 10 -3 6 -8 10 -11 10 -2 0 -4
-4 -4 -10z"/>
</g>
</svg>
